<svg width="520.94" height="301.74" xmlns="http://www.w3.org/2000/svg">
 <style type="text/css">.st0{fill:#181419;}
	.st1{fill:#171215;}
	.st2{fill:#B62227;}
	.st3{fill:#212121;}
	.st4{fill:#D04041;}
	.st5{fill:#DC3837;}
	.st6{fill:#E22C2E;}
	.st7{fill:#B62227;stroke:#B62227;stroke-miterlimit:10;}
	.st8{font-family:'Abel-Regular';}
	.st9{font-size:40.0497px;}</style>

 <g>
  <title>background</title>
  <rect fill="none" id="canvas_background" height="602" width="802" y="-1" x="-1"/>
 </g>
 <g>
  <title>Layer 1</title>
  <g stroke="null" id="svg_1">
   <g stroke="null" id="svg_2">
    <path stroke="null" id="svg_3" d="m149.04934,103.52529c-3.0747,13.64867 2.18729,25.77248 6.06191,38.18377c6.31188,20.17303 14.04863,39.63363 26.52241,56.95694c3.87462,5.37447 6.97432,11.2239 9.71155,17.26081c3.33717,7.34928 7.08681,14.47359 11.74885,21.09794c2.0248,2.88722 3.61215,6.01191 4.91202,9.28659c2.22478,5.59945 4.66204,11.02392 9.57406,14.96104c2.22478,1.78733 1.98731,3.32468 -0.93741,4.34958c-6.88683,2.42476 -16.3359,-0.34997 -20.13553,-6.57436c-1.59984,-2.61224 -3.0247,-2.0498 -4.99951,-1.16239c-2.56225,1.16239 -3.77463,0.22498 -5.19949,-2.23728c-3.1122,-5.33698 -2.74973,-11.19891 -3.22468,-16.86085c-1.9998,-24.12264 -9.57406,-46.33297 -22.17283,-66.94346c-2.63724,-4.32458 -3.63714,-9.2366 -4.24958,-14.12362c-1.51235,-12.06132 -7.06181,-22.37281 -13.98613,-31.95938c-2.86222,-3.96211 -3.36217,-7.34928 -1.0624,-11.34889c2.16229,-3.68714 3.57465,-7.82424 7.43677,-10.88644z" class="st0"/>
    <path stroke="null" id="svg_4" d="m85.94301,261.37237c0.9999,-3.94961 4.0496,-5.31198 6.69935,-6.49937c4.22459,-1.88732 6.36188,-4.96202 7.41178,-9.2491c2.56225,-10.44898 4.74954,-20.97295 5.97442,-31.67191c0.33747,-2.98721 -0.46245,-5.74944 -1.16239,-8.54916c-0.86242,-3.39967 -1.9998,-6.73684 -2.79973,-10.14901c-0.9749,-4.17459 -0.63744,-8.34918 1.68734,-11.98633c5.57446,-8.69915 14.23611,-13.3362 22.93526,-17.84826c0.37496,0.33747 0.74993,0.67493 1.11239,1.0249c-2.12479,3.78713 -4.22459,7.59926 -6.39937,11.36139c-12.01133,20.86046 -11.97383,20.84796 -6.24939,43.93321c2.53725,10.224 4.92452,20.473 7.22429,30.747c1.89981,8.48667 1.0624,9.87404 -7.73674,10.12401c-9.46158,0.26247 -19.01064,1.0249 -28.6972,-1.23738z" class="st1"/>
    <path stroke="null" id="svg_5" d="m45.23448,198.54101c0.11249,1.98731 0.23748,3.97461 0.34997,5.96192c-0.79992,5.44947 1.43736,10.72395 0.96241,16.14842c-5.43697,0.23748 -10.83644,0.36246 -14.39859,-4.91202c-0.31247,-0.44996 -1.0249,-0.81242 -1.59984,-0.88741c-7.38678,-1.08739 -12.96123,-5.47447 -19.01064,-9.37408c-5.17449,-3.32468 -6.57436,-8.1742 -8.42418,-13.07372c-0.9999,-2.64974 1.67484,-3.01221 3.24968,-3.53715c7.88673,-2.61224 15.29851,-6.1869 22.23533,-10.71145c3.0872,-2.0123 6.1119,-4.1371 9.1616,-6.21189c0.36246,1.66234 3.94961,1.08739 2.71224,3.86212c0.39996,0.0375 0.79992,0.07499 1.19988,0.11249c3.37467,7.47427 3.49966,14.64857 3.56215,22.62279z" class="st2"/>
    <path stroke="null" id="svg_6" d="m41.67233,175.93072c-0.39996,-0.0375 -0.79992,-0.07499 -1.19988,-0.11249c1.23738,-2.77473 -2.34977,-2.19979 -2.71224,-3.86212c3.13719,-2.0498 4.1246,-4.41207 3.21219,-8.47417c-1.94981,-8.76164 -4.79953,-17.3608 -5.62445,-26.35992c0,-2.64974 0.05,-5.28698 0,-7.93672c-0.0375,-1.56235 0.22498,-2.83722 2.0373,-3.19969c1.41236,14.56108 7.22429,27.6473 13.58617,40.58354c5.59945,11.38639 12.97373,21.69788 19.67308,32.40933c0.11249,0.17498 0.22498,0.34997 0.36246,0.49995c1.24988,1.54985 4.61205,2.33727 3.72464,4.38707c-1.19988,2.77473 -4.21209,4.44957 -7.28679,5.37447c-0.77492,0.23748 -1.64984,0.28747 -2.47476,0.22498c-4.63705,-0.32497 -8.76164,0.07499 -10.199,5.63695c-0.17498,0.68743 -1.66234,1.46236 -2.53725,1.44986c-0.88741,-0.0125 -1.61234,-1.0249 -1.69983,-2.17479c-0.52495,-6.64935 -3.0497,-13.03623 -2.74973,-19.79807c0.18748,-5.77444 -2.34977,-11.06142 -3.01221,-16.68587c-0.22498,-1.77483 -1.42486,-2.31227 -3.0997,-1.96231z" class="st2"/>
    <path stroke="null" id="svg_7" d="m96.59197,46.53086c1.98731,-5.91192 1.92481,-5.97442 -5.64945,-5.63695c0,-0.37496 -0.11249,-1.0374 0.0125,-1.07489c5.84943,-2.22478 7.07431,-6.42437 5.91192,-12.19881c-0.81242,-4.03711 1.32487,-6.32438 5.47447,-7.48677c5.62445,-1.56235 11.01142,-3.0497 17.01084,-1.63734c4.68704,1.09989 6.41187,3.98711 7.1743,8.12421c1.07489,5.86193 1.07489,5.86193 7.44927,6.77434c-4.37457,1.68734 -7.47427,3.46216 -6.72434,8.47417c0.41246,2.73723 -2.59975,3.43716 -4.76203,3.99961c-2.39977,0.62494 -2.27478,-1.86232 -3.17469,-3.0372c-0.48745,-0.63744 -0.62494,-1.53735 -1.09989,-2.18729c-2.31227,-3.19969 -4.0746,-3.21219 -6.54936,0.025c-0.74993,0.9749 -1.26238,2.13729 -3.16219,2.54975c-1.26238,-0.94991 -0.19998,-4.41207 -3.01221,-4.1371c-1.39986,0.13749 -3.39967,-1.43736 -3.21219,2.78723c0.19998,4.41207 -0.23748,8.54916 1.79982,12.73626c1.11239,2.27478 2.34977,3.66214 6.01191,3.24968c-5.96192,2.77473 -5.59945,2.47476 -8.58666,-1.27488c-1.66234,-2.0873 -1.0499,-6.04941 -4.94952,-6.33688c0.0125,-1.22488 0.025,-2.46226 0.0375,-3.71214zm5.32448,-11.99883c0.12499,0.33747 0.23748,0.67493 0.36246,1.0124c6.19939,-0.88741 12.41129,-1.73733 18.61068,-2.68724c3.88712,-0.59994 3.23718,-3.68714 3.19969,-6.28689c-0.05,-3.28718 -2.73723,-3.26218 -4.91202,-3.27468c-1.82482,-0.0125 -3.63714,0.78742 -5.1495,1.92481c-4.0621,3.0747 -8.07421,6.21189 -12.11132,9.31159z" class="st3"/>
    <path stroke="null" id="svg_8" d="m34.74801,101.11303c7.37428,9.39908 17.87325,13.72366 28.29724,18.23572c10.42398,4.51206 21.5104,21.32292 15.88595,34.37164c-1.57485,3.66214 -0.57494,7.76174 -1.68734,12.01133c-3.63714,-2.62474 -3.87462,-6.26189 -3.74963,-9.84904c0.14999,-4.37457 0.0125,-8.76164 -1.17489,-12.92374c-2.0873,-7.34928 -5.92442,-13.49868 -12.97373,-17.3733c-5.41197,-2.97471 -10.72395,-6.1869 -15.76096,-9.73655c-4.89952,-3.43716 -9.62406,-7.31179 -8.83664,-14.73606z" class="st2"/>
    <path stroke="null" id="svg_9" d="m61.60789,56.47989c-2.29978,-4.96202 -0.73743,-12.2363 3.23718,-14.98604c0.51245,-0.34997 1.26238,-0.96241 1.62484,-0.81242c4.46206,1.86232 8.31169,-0.92491 12.43629,-1.47486c3.37467,-0.46245 6.04941,1.21238 8.52417,3.12469c1.77483,1.37487 3.0997,3.31218 5.19949,4.31208c2.42476,5.94942 2.34977,5.83693 -2.46226,9.47407c-2.29978,1.74983 -5.36198,1.73733 -7.48677,3.69964c-0.26247,-0.025 -0.49995,0.05 -0.71243,0.19998c-0.47495,-0.52495 -0.93741,-1.0499 -1.41236,-1.57485c0.17498,-0.28747 0.12499,-0.52495 -0.14999,-0.71243c-0.92491,-4.0996 -1.19988,-4.17459 -5.26199,-1.36237c-1.51235,0.19998 -2.29978,1.0374 -2.29978,2.57475c-0.78742,0.37496 -1.56235,0.73743 -2.34977,1.11239c-1.64984,-1.86232 -4.59955,-0.44996 -6.19939,-2.43726c-0.52495,-1.24988 -1.64984,-1.09989 -2.68724,-1.13739z" class="st2"/>
    <path stroke="null" id="svg_10" d="m171.67213,227.61317c-13.18621,-15.28601 -19.4481,-33.05927 -29.74709,-48.54526c5.67445,-0.61244 9.44908,0.94991 13.73616,6.1244c6.41187,7.72425 11.03642,16.46089 13.2987,26.23494c1.14989,4.93702 2.87472,9.84904 2.71224,16.18592z" class="st0"/>
    <path stroke="null" id="svg_11" d="m122.27696,92.56386c4.21209,-11.49888 11.18641,-22.03535 5.36198,-34.23416c2.71224,-1.31237 4.0871,0.31247 5.51196,1.27488c6.02441,4.03711 12.19881,7.72425 19.37311,9.47407c3.49966,0.86242 4.0621,3.74963 4.27458,6.73684c0.05,0.76243 -0.07499,1.89981 -1.16239,1.58734c-3.67464,-1.07489 -3.26218,3.0622 -5.79943,4.22459c-0.53745,-2.09979 -1.0374,-4.1246 -1.54985,-6.1369c-0.83742,-3.29968 -3.52466,-4.44957 -6.39937,-5.1245c-3.1122,-0.73743 -4.42457,1.66234 -5.72444,3.78713c-2.89972,4.74954 -5.63695,9.61156 -8.64916,14.2986c-1.0124,1.56235 -1.39986,4.03711 -5.23699,4.1121z" class="st3"/>
    <path stroke="null" id="svg_12" d="m67.71979,245.57391c1.62484,6.53686 -0.16248,12.98623 -0.69993,19.4481c-0.29997,3.69964 -3.66214,4.79953 -8.82414,3.63714c-3.64964,-0.82492 -4.33708,-2.11229 -3.41217,-6.33688c0.88741,-4.0496 2.79973,-7.69925 4.58705,-11.37389c1.44986,-2.96221 2.77473,-5.94942 3.64964,-9.12411c1.07489,-0.37496 2.39977,-1.27488 2.34977,0.9749c-0.0375,1.64984 0.49995,2.74973 2.34977,2.77473z" class="st2"/>
    <path stroke="null" id="svg_13" d="m61.67038,96.50098c2.64974,3.77463 5.93692,3.79963 9.72405,1.79982c1.93731,-1.0249 3.82463,-2.57475 6.94932,-1.57485c-5.1245,6.41187 -9.97403,12.76125 -10.88644,20.99795c-5.06201,-1.31237 -9.36159,-5.79943 -9.54907,-10.74895c-0.24998,-6.78684 -0.39996,-13.63617 1.19988,-20.33551c-0.29997,2.41226 0.9874,4.73704 0.09999,7.27429c-0.42496,1.23738 -0.18748,3.43716 2.46226,2.58725z" class="st2"/>
    <path stroke="null" id="svg_14" d="m27.04876,88.0518c1.31237,-0.88741 4.0871,1.9998 4.16209,-2.16229c0.06249,-3.41217 3.16219,-4.51206 6.38688,-4.39957c2.42476,0.08749 4.86203,0.28747 7.61176,0.46245c-0.74993,3.43716 -3.96211,2.48726 -6.07441,3.87462c2.72473,1.84982 6.43687,0.59994 9.03662,2.87472c-1.23738,2.18729 -3.24968,0.86242 -4.53706,1.64984c0.57494,2.0123 3.28718,0.68743 4.0871,2.96221c-0.26247,1.33737 -5.72444,-0.56245 -2.73723,3.34967c-2.79973,-0.37496 -3.84962,3.82463 -6.79934,2.72473c-3.72464,-1.37487 -7.1743,-3.17469 -8.77414,-7.23679c-0.58744,-1.42486 -1.54985,-2.71224 -2.36227,-4.0996z" class="st3"/>
    <path stroke="null" id="svg_15" d="m67.71979,245.57391c-1.84982,-0.025 -2.38727,-1.12489 -2.34977,-2.77473c0.06249,-2.24978 -1.26238,-1.34987 -2.34977,-0.9749c0.9874,-6.48687 1.87482,-12.98623 2.98721,-19.4481c0.83742,-4.86203 4.19959,-8.1867 7.84923,-11.79885c1.24988,6.04941 -0.86242,11.2614 -2.31227,16.49839c-1.67484,6.08691 -4.66204,11.89884 -3.82463,18.49819z" class="st2"/>
    <path stroke="null" id="svg_16" d="m165.18527,93.98872c1.24988,2.94971 3.87462,4.78703 5.83693,7.1618c2.96221,3.59965 4.0621,7.51177 2.39977,12.09882c-1.69983,4.67454 -2.62474,5.1245 -7.24929,3.24968c-1.96231,-0.78742 -3.58715,-2.0123 -5.23699,-3.33717c1.37487,-2.27478 5.137,-1.83732 5.67445,-5.0745c0.46245,-2.79973 -0.61244,-5.26199 -1.43736,-7.79924c-0.43746,-1.36237 -0.91241,-2.72473 -1.36237,-4.0871c0.36246,-0.78742 0.05,-1.9998 1.37487,-2.21228z" class="st3"/>
    <path stroke="null" id="svg_17" d="m140.20021,96.08852c-7.76174,2.12479 -15.91095,0.96241 -23.72268,2.72473c-7.54926,1.71233 -12.78625,-2.94971 -18.4607,-6.46187c0.87491,-1.52485 2.42476,-0.72493 3.64964,-1.0624c6.88683,2.0873 13.92364,2.96221 21.11044,2.64974c3.28718,1.84982 6.91182,0.66244 10.34899,1.13739c2.36227,0.32497 4.96202,-0.9749 7.07431,1.0124z" class="st2"/>
    <path stroke="null" id="svg_18" d="m122.71442,143.30891c0.49995,-1.53735 1.91231,-1.98731 3.82463,-2.98721c-1.22488,1.71233 -1.96231,2.97471 -1.92481,4.58705c3.13719,1.71233 5.47447,-0.33747 7.84923,-1.79982c4.36207,-2.68724 12.42379,-2.28728 16.21092,0.92491c0.81242,0.68743 1.54985,1.61234 1.32487,2.64974c-0.22498,1.0624 -1.34987,1.48735 -2.38727,1.67484c-1.64984,0.31247 -3.31218,0.27497 -4.92452,-0.18748c-4.0496,-1.18738 -8.1867,-1.07489 -12.33629,-0.88741c-1.08739,-1.82482 -2.89972,-1.16239 -4.43707,-1.16239c-2.0123,-0.0125 -3.0747,-0.81242 -3.19969,-2.81223z" class="st2"/>
    <path stroke="null" id="svg_19" d="m106.66598,160.7447c-4.38707,2.67474 -9.46158,4.0496 -13.68616,7.06181c-1.47486,1.0499 -3.21219,0.9874 -4.77453,0.32497c-2.23728,-0.93741 -4.51206,-1.53735 -7.1243,-1.89981c6.92432,-4.79953 14.99853,-5.97442 22.83527,-7.83673c0.93741,0.77492 4.44957,-1.47486 2.74973,2.34977z" class="st2"/>
    <path stroke="null" id="svg_20" d="m159.34834,92.66385c-0.28747,0.76243 -0.46245,1.58734 -0.88741,2.26228c-4.24958,6.72434 -7.32428,6.89933 -13.22371,0.83742c1.71233,-2.51225 3.0247,1.53735 4.69954,0.27497c0,-2.27478 -4.28708,-3.61215 -1.94981,-6.02441c1.76233,-1.81232 4.01211,-4.34958 7.38678,-2.59975c3.31218,0.26247 3.42467,2.92471 3.97461,5.24949z" class="st3"/>
    <path stroke="null" id="svg_21" d="m122.71442,143.30891c0.12499,1.9998 1.18738,2.79973 3.18719,2.81223c1.53735,0.0125 3.34967,-0.64994 4.43707,1.16239c-4.27458,2.0498 -8.54916,4.0996 -12.82375,6.1494c-2.93721,-0.11249 -1.84982,-2.49976 -2.28728,-4.02461c0.84992,-4.03711 4.82453,-4.26208 7.48677,-6.0994z" class="st2"/>
    <path stroke="null" id="svg_22" d="m82.88081,68.91617c0.72493,-0.05 1.43736,-0.08749 2.16229,-0.13749c1.68734,-0.06249 2.93721,0.72493 3.91212,2.0248c-2.48726,0.51245 -3.87462,2.68724 -5.88692,3.93712c-4.51206,2.79973 -4.84953,2.92471 -9.01162,-1.46236c-0.39996,-0.57494 -0.79992,-1.14989 -1.21238,-1.71233c3.46216,-0.41246 7.34928,0.77492 9.99902,-2.63724c0.0125,0 0.0375,-0.0125 0.0375,-0.0125z" class="st2"/>
    <path stroke="null" id="svg_23" d="m101.66647,91.28899c-1.22488,0.33747 -2.77473,-0.46245 -3.64964,1.0624c-2.48726,-1.0499 -4.93702,-2.18729 -7.47427,-3.12469c-1.89981,-0.69993 -2.92471,-2.22478 -4.14959,-3.62465c-1.24988,-1.42486 -0.73743,-2.72473 0.34997,-3.82463c1.32487,-1.34987 2.27478,0.0125 2.97471,0.81242c3.37467,3.76213 7.39928,6.58686 11.94883,8.69915z" class="st2"/>
    <path stroke="null" id="svg_24" d="m41.67233,175.93072c1.67484,-0.34997 2.87472,0.18748 3.0872,1.96231c0.66244,5.62445 3.19969,10.91143 3.01221,16.68587c-1.31237,-0.44996 -0.73743,-2.18729 -2.17479,-2.93721c-0.12499,2.41226 -0.23748,4.66204 -0.36246,6.91182" class="st2"/>
    <path stroke="null" id="svg_25" d="m37.37275,125.9731c-1.81232,0.36246 -2.0748,1.63734 -2.0373,3.19969c0.05,2.63724 0.0125,5.28698 0,7.93672c-2.34977,-7.53676 -1.52485,-15.3235 -2.14979,-24.47261c2.66224,5.06201 3.53715,9.1616 4.18709,13.3362z" class="st2"/>
    <path stroke="null" id="svg_26" d="m115.22765,149.40831c0.43746,1.52485 -0.64994,3.91212 2.28728,4.02461c-1.78733,5.137 -6.94932,5.29948 -10.84894,7.31179c1.71233,-3.82463 -1.81232,-1.58734 -2.74973,-2.34977c0.73743,-0.38746 1.42486,-0.9999 2.19979,-1.12489c4.71204,-0.73743 7.76174,-3.29968 9.11161,-7.86173z" class="st2"/>
    <path stroke="null" id="svg_27" d="m72.7193,70.47852c0,0.37496 0.0375,0.73743 0.12499,1.09989c0.39996,0.57494 0.79992,1.14989 1.21238,1.71233c-4.39957,-0.86242 -7.24929,-4.41207 -11.07392,-6.29938c0.86242,-0.73743 2.32477,-0.74993 2.57475,-2.19979c2.18729,0.05 3.36217,1.81232 4.93702,2.88722c-0.0125,0.73743 0.38746,1.16239 1.0624,1.39986c0.12499,0.67493 0.47495,1.17489 1.16239,1.39986z" class="st2"/>
    <path stroke="null" id="svg_28" d="m61.67038,96.50098c-2.63724,0.84992 -2.88722,-1.34987 -2.44976,-2.58725c0.88741,-2.53725 -0.39996,-4.86203 -0.09999,-7.27429c0.44996,-2.34977 0.89991,-4.69954 1.36237,-7.03681c0.39996,0.0125 0.79992,0.025 1.19988,0.0375c-0.0125,5.61195 -0.0125,11.2364 -0.0125,16.86085z" class="st2"/>
    <path stroke="null" id="svg_29" d="m65.5575,64.79158c-0.23748,1.44986 -1.71233,1.47486 -2.57475,2.19979c-2.14979,-0.38746 -4.28708,-0.77492 -6.52436,-1.17489c0.84992,-2.64974 3.19969,-2.0123 4.67454,-2.92471c0.79992,0.93741 1.84982,1.0124 2.96221,0.86242c0.49995,0.34997 0.9874,0.68743 1.46236,1.0374z" class="st2"/>
    <path stroke="null" id="svg_30" d="m140.20021,96.08852c-2.11229,-1.98731 -4.71204,-0.68743 -7.07431,-1.0124c-3.43716,-0.47495 -7.06181,0.71243 -10.34899,-1.13739c5.94942,0 11.91134,-0.025 17.86076,0.025c1.0499,0.0125 2.18729,0.36246 1.27488,1.76233c-0.22498,0.34997 -1.12489,0.26247 -1.71233,0.36246z" class="st2"/>
    <path stroke="null" id="svg_31" d="m88.96771,70.80349c-0.9749,-1.31237 -2.22478,-2.0873 -3.91212,-2.0248c2.63724,-1.54985 0.28747,-6.01191 4.0621,-6.88683c-0.26247,0.74993 -0.51245,1.51235 -0.77492,2.26228c-0.86242,2.49976 0.56245,1.57485 1.67484,1.09989c-0.13749,1.88732 0.06249,3.84962 -1.0499,5.54946z" class="st4"/>
    <path stroke="null" id="svg_32" d="m90.36758,61.5044c0.92491,-0.81242 1.83732,-2.39977 2.78723,-0.025c-0.47495,1.31237 -1.33737,2.21228 -2.72473,2.57475c-0.0125,-0.84992 -0.0375,-1.69983 -0.06249,-2.54975z" class="st4"/>
    <path stroke="null" id="svg_33" d="m90.36758,61.5044c0.025,0.84992 0.05,1.69983 0.07499,2.53725c-0.13749,0.39996 -0.27497,0.79992 -0.42496,1.21238c-1.11239,0.47495 -2.53725,1.39986 -1.67484,-1.09989c0.26247,-0.74993 0.51245,-1.51235 0.77492,-2.26228c0.41246,-0.13749 0.83742,-0.26247 1.24988,-0.38746z" class="st5"/>
    <path stroke="null" id="svg_34" d="m70.50702,60.05454c0.78742,-0.37496 1.56235,-0.73743 2.34977,-1.11239c0.0125,0.78742 0.0375,1.67484 -0.71243,2.0623c-0.83742,0.42496 -1.42486,-0.06249 -1.63734,-0.94991z" class="st6"/>
    <path stroke="null" id="svg_35" d="m61.60789,56.47989c1.0499,0.0375 2.17479,-0.11249 2.69974,1.13739c-1.12489,0.14999 -2.16229,0.08749 -2.69974,-1.13739z" class="st6"/>
    <path stroke="null" id="svg_36" d="m64.10764,63.76668c-1.11239,0.14999 -2.16229,0.07499 -2.96221,-0.86242c1.13739,-0.23748 2.23728,-0.33747 2.96221,0.86242z" class="st2"/>
    <path stroke="null" id="svg_37" d="m80.56853,58.4422c0.47495,0.52495 0.93741,1.0499 1.41236,1.57485c-0.9999,-0.07499 -1.42486,-0.63744 -1.41236,-1.57485z" class="st6"/>
    <path stroke="null" id="svg_38" d="m71.55691,69.06616c-0.67493,-0.22498 -1.07489,-0.64994 -1.0624,-1.39986c0.63744,0.24998 0.9999,0.71243 1.0624,1.39986z" class="st6"/>
   </g>
   <text stroke="null" id="svg_39" transform="matrix(1.2498778958772476,0,0,1.2498778958772476,247.03789494777558,217.47478496054876) ">
    <tspan stroke="null" id="svg_40" class="st7 st8 st9" y="0" x="0">ZENIT</tspan>
    <tspan stroke="null" id="svg_41" class="st8 st9" y="36" x="0">Dance Studio</tspan>
   </text>
  </g>
 </g>
</svg>